<?xml version="1.0" standalone="no"?>
<!DOCTYPE svg PUBLIC "-//W3C//DTD SVG 20010904//EN"
 "http://www.w3.org/TR/2001/REC-SVG-20010904/DTD/svg10.dtd">
<svg version="1.0" xmlns="http://www.w3.org/2000/svg"
 width="350.000000pt" height="200.000000pt" viewBox="0 0 350.000000 200.000000"
 preserveAspectRatio="xMidYMid meet">

<g transform="translate(0.000000,200.000000) scale(0.100000,-0.100000)"
fill="#000000" stroke="none">
<path d="M1030 1722 c-403 -146 -636 -555 -556 -974 72 -377 393 -663 778
-693 89 -7 217 6 289 30 l44 15 -55 -4 c-182 -13 -390 46 -551 155 -324 220
-455 659 -308 1029 64 159 211 332 348 410 64 36 100 60 91 59 -3 0 -39 -12
-80 -27z"/>
<path d="M2109 1184 c-9 -11 -10 -20 -2 -32 24 -39 82 -15 68 28 -8 24 -47 27
-66 4z"/>
<path d="M956 1090 c-37 -12 -66 -38 -66 -62 0 -25 43 -24 80 4 25 18 32 19
45 8 9 -7 15 -23 13 -34 -3 -18 -12 -22 -61 -27 -74 -8 -107 -36 -107 -90 0
-64 61 -97 123 -65 15 8 27 11 27 5 0 -5 15 -9 34 -9 33 0 33 0 39 58 3 31 9
80 13 108 6 44 3 53 -17 77 -27 29 -78 41 -123 27z m64 -167 c0 -24 -10 -38
-37 -51 -29 -16 -53 -5 -53 24 0 27 23 43 63 44 19 0 27 -5 27 -17z"/>
<path d="M1245 1085 c-19 -10 -31 -12 -33 -6 -2 6 -16 11 -32 11 -27 0 -28 -2
-44 -90 -9 -49 -19 -110 -23 -136 l-6 -45 34 3 33 3 17 92 c9 51 22 99 29 108
16 20 59 19 67 -1 5 -14 -11 -143 -23 -186 -4 -15 1 -18 30 -18 38 0 38 1 62
145 8 48 29 75 60 75 38 0 39 -34 8 -192 -5 -26 -3 -28 29 -28 l35 0 11 63
c27 158 23 192 -32 210 -21 7 -37 4 -69 -12 -36 -17 -43 -18 -52 -6 -17 23
-67 28 -101 10z"/>
<path d="M1665 1084 c-19 -10 -31 -11 -33 -5 -4 13 -62 15 -62 2 0 -5 -13 -87
-30 -183 -16 -95 -30 -176 -30 -180 0 -5 16 -8 35 -8 24 0 35 5 35 15 0 7 5
37 11 64 10 49 11 51 32 36 33 -23 73 -18 110 15 75 65 76 222 1 250 -33 13
-34 13 -69 -6z m45 -59 c18 -21 8 -110 -15 -135 -19 -21 -51 -26 -74 -11 -13
8 -13 20 -3 73 12 63 29 88 63 88 9 0 22 -7 29 -15z"/>
<path d="M1893 1089 c-29 -9 -73 -50 -73 -70 0 -17 62 -9 87 11 31 24 66 11
61 -23 -3 -19 -11 -23 -58 -28 -66 -7 -96 -24 -109 -62 -12 -34 -1 -69 31 -91
28 -20 51 -20 88 -1 17 9 30 11 30 5 0 -5 16 -10 36 -10 19 0 33 4 30 9 -3 4
1 49 9 99 18 109 11 136 -40 157 -39 17 -47 17 -92 4z m62 -171 c-7 -22 -40
-58 -54 -58 -4 0 -16 6 -26 14 -18 13 -18 15 -2 40 13 20 26 26 53 26 32 0 35
-2 29 -22z"/>
<path d="M2255 1091 c-72 -30 -109 -166 -65 -238 23 -38 57 -49 101 -34 44 15
47 7 11 -29 -33 -33 -67 -38 -98 -16 -35 26 -61 -17 -27 -45 13 -11 17 -11 20
-1 3 6 9 12 14 12 6 0 8 -4 5 -9 -9 -15 21 -21 69 -15 30 5 52 15 71 35 25 26
31 47 55 184 l26 155 -33 0 c-18 0 -34 -5 -36 -11 -2 -6 -14 -5 -33 5 -33 17
-50 19 -80 7z m84 -60 c18 -12 6 -119 -16 -143 -19 -21 -54 -23 -71 -6 -27 27
-5 137 30 151 20 8 42 7 57 -2z"/>
<path d="M2076 983 c-10 -60 -20 -120 -23 -135 -5 -26 -3 -28 29 -28 l34 0 22
128 c12 70 22 130 22 135 0 4 -15 7 -34 7 l-33 0 -17 -107z"/>
</g>
</svg>
